<svg width="41" height="46" viewBox="0 0 41 46" fill="none" xmlns="http://www.w3.org/2000/svg">
<path d="M18.2104 31.2781L18.2104 31.2781L18.2037 31.2713L11.7552 24.8236C9.15846 22.1716 8.54746 19.5208 8.72561 17.2299C8.90941 14.8665 9.94689 12.7752 10.8245 11.4035C11.1339 10.9201 11.4145 10.5398 11.614 10.2847C11.7136 10.1573 11.7925 10.0618 11.844 10.0009C11.8635 9.9778 11.8791 9.95972 11.8903 9.94679L13.8648 7.9723C14.2979 7.53916 14.9738 7.55197 15.3745 7.95271L19.3472 11.9254C19.7479 12.3261 19.7607 13.002 19.3276 13.4351L17.3796 15.3831C17.3652 15.3949 17.3497 15.4079 17.3331 15.4219C17.2573 15.4861 17.1574 15.5753 17.046 15.6872C16.8305 15.9036 16.5362 16.2403 16.3009 16.6774C16.0645 17.1169 15.8529 17.725 15.9164 18.4391C15.9822 19.1791 16.3279 19.8585 16.9053 20.4358L22.8272 26.3578C23.299 26.8296 23.8572 27.113 24.4511 27.2126C25.5029 27.389 26.4056 26.9535 26.8969 26.6549C27.1679 26.4901 27.3888 26.3209 27.5422 26.1933C27.62 26.1286 27.6832 26.0724 27.7297 26.0295C27.7531 26.008 27.7724 25.9897 27.7875 25.9751L27.807 25.9562L27.8143 25.949L27.8174 25.9459L27.8188 25.9446L27.8194 25.9439C27.8197 25.9436 27.82 25.9433 26.7594 24.8826L27.82 25.9433L29.8279 23.9354C30.261 23.5023 30.9369 23.5151 31.3377 23.9158L35.3103 27.8885C35.7111 28.2892 35.7239 28.9651 35.2907 29.3982L33.3163 31.3727C33.3034 31.3839 33.2853 31.3994 33.2623 31.4189C33.2014 31.4703 33.1059 31.5492 32.9785 31.6487C32.7234 31.8482 32.3431 32.1286 31.8596 32.4378C30.4787 33.3206 28.3687 34.3643 25.985 34.536C23.6741 34.7024 20.9937 34.062 18.3136 31.382C18.279 31.3474 18.2446 31.3128 18.2104 31.2781Z" stroke="#9A9A9A" stroke-width="3"/>
</svg>
